<?xml version="1.0" standalone="no"?>
<svg version="1.0" xmlns="http://www.w3.org/2000/svg"
 width="24.000000pt" height="24.000000pt" viewBox="0 0 24.000000 24.000000"
 preserveAspectRatio="xMidYMid meet">

<g transform="translate(0.000000,24.000000) scale(0.100000,-0.100000)"
fill="#FFFFFF" stroke="none">
<path d="M39 201 c-33 -33 -39 -45 -39 -81 0 -36 6 -48 39 -81 33 -33 45 -39
81 -39 36 0 48 6 81 39 33 33 39 45 39 81 0 61 -59 120 -120 120 -36 0 -48 -6
-81 -39z m81 -16 c0 -22 -6 -38 -15 -41 -8 -4 -15 -14 -15 -24 0 -10 7 -20 15
-24 20 -7 21 -76 0 -76 -27 0 -63 22 -74 47 -23 51 -7 122 33 141 42 21 56 15
56 -23z m30 -50 c10 -12 10 -18 0 -30 -19 -23 -30 -18 -30 15 0 33 11 38 30
15z"/>
</g>
</svg>
